<?xml version="1.0" encoding="utf-8"?>
<!-- Generator: Adobe Illustrator 21.1.0, SVG Export Plug-In . SVG Version: 6.00 Build 0)  -->
<svg version="1.1" xmlns="http://www.w3.org/2000/svg" xmlns:xlink="http://www.w3.org/1999/xlink" x="0px" y="0px"
	 viewBox="0 0 216.2 215.8" style="enable-background:new 0 0 216.2 215.8;" xml:space="preserve">
<style type="text/css">
	.st0{fill:#00C9D3;}
	.st1{fill:#00D3E2;}
	.st2{fill:url(#SVGID_1_);}
	.st3{fill:url(#SVGID_2_);}
</style>
<g id="Background">
</g>
<g id="Layer_1">
	<g>
		<g>
			<g id="Layer_2_1_">
				<polygon class="st0" points="86.6,127 36.4,106.4 188.7,106.6 74.1,141.2 				"/>
			</g>
			<g id="Layer_4_1_">
				<polyline class="st1" points="188.7,106.6 36.4,106.4 92.8,120.1 81.5,132.9 188.7,106.6 				"/>
			</g>
			<g id="Layer_5_1_">
				
					<linearGradient id="SVGID_1_" gradientUnits="userSpaceOnUse" x1="102.3379" y1="30.3907" x2="208.809" y2="138.1354" gradientTransform="matrix(0.7047 -0.7095 0.7095 0.7047 -56.7122 174.8749)">
					<stop  offset="0" style="stop-color:#C419D2"/>
					<stop  offset="0.5605" style="stop-color:#C419D2;stop-opacity:0"/>
				</linearGradient>
				<polygon class="st2" points="86.6,127 36.4,106.4 188.7,106.6 74.1,141.2 				"/>
			</g>
		</g>
		<linearGradient id="SVGID_2_" gradientUnits="userSpaceOnUse" x1="13.5428" y1="87.3218" x2="202.6927" y2="87.3218">
			<stop  offset="0" style="stop-color:#C419D2"/>
			<stop  offset="6.987262e-02" style="stop-color:#AD2FD4"/>
			<stop  offset="0.2441" style="stop-color:#7960D8"/>
			<stop  offset="0.4153" style="stop-color:#4D8ADC"/>
			<stop  offset="0.5798" style="stop-color:#2CAADE"/>
			<stop  offset="0.7357" style="stop-color:#14C0E0"/>
			<stop  offset="0.8796" style="stop-color:#05CEE2"/>
			<stop  offset="1" style="stop-color:#00D3E2"/>
		</linearGradient>
		<path class="st3" d="M20.2,75.2l4.9,12.2l5.2-12.2h5.1l5,12.2l5.1-12.2h6.1l-11.5,24.9l-7.6-16.9L25,100.1L13.5,75.2H20.2z
			 M74.8,83.4v15.5h-5.5v-3c0,0-2.5,3.6-7.8,3.6c-4.5,0-8.6-2.9-8.6-7.9c0-4.5,4.2-7.9,9.3-7.9c4.4,0,6.6,1.7,6.6,1.7V84
			c0-3.1-3-4.1-5.1-4.1c-3.5,0-7.1,1.8-7.1,1.8l-1.9-5c0,0,4.4-2.2,9.4-2.2C70.8,74.6,74.8,78,74.8,83.4z M68.8,91.7v-2.5
			c0,0-2.2-1.2-5.4-1.2c-1.9,0-4.4,0.8-4.4,3.4c0,2.5,2.5,3,4.3,3C66.9,94.5,68.8,91.7,68.8,91.7z M97.1,75.3L95,80.7
			c0,0-1.1-0.5-2.9-0.5c-3.7,0-5.3,3.2-5.3,3.2v15.5h-6V75.2h5.7v3.5c0,0,2.1-4.1,6.5-4.1C95.1,74.6,97.1,75.3,97.1,75.3z
			 M120.6,75.2l-11.7,18.1h11.2v5.6H98.7l11.8-18.1H99.5v-5.6H120.6z M148.6,87c0,7-5.6,12.4-12.7,12.4S123.3,94,123.3,87
			c0-7,5.6-12.5,12.7-12.5S148.6,80,148.6,87z M142.5,87c0-3.7-2.5-6.9-6.6-6.9c-4,0-6.6,3.2-6.6,6.9s2.5,6.9,6.6,6.9
			C140,93.9,142.5,90.7,142.5,87z M174.4,83.5v15.4h-6V85c0-3.4-2.1-4.9-4.7-4.9c-3.1,0-4.7,3-4.7,3v15.7h-6V75.2h5.6v3.5
			c0,0,2.1-4.1,7.1-4.1C170.3,74.6,174.4,77.8,174.4,83.5z M202.7,86.9c0,0.5,0,1.4-0.1,2.3h-17.7c0.5,2.1,2.9,4.8,6.7,4.8
			c4.2,0,6.5-2.4,6.5-2.4l3,4.5c0,0-3.8,3.4-9.5,3.4c-7.2,0-12.8-5.5-12.8-12.4s5-12.5,11.9-12.5C197.2,74.6,202.7,79.6,202.7,86.9z
			 M196.7,84.8c-0.1-2-2-4.8-6-4.8c-3.9,0-5.6,2.7-5.8,4.8H196.7z"/>
	</g>
</g>
</svg>
